<?xml version="1.0" standalone="no"?>
<!DOCTYPE svg PUBLIC "-//W3C//DTD SVG 20010904//EN"
 "http://www.w3.org/TR/2001/REC-SVG-20010904/DTD/svg10.dtd">
<svg version="1.0" xmlns="http://www.w3.org/2000/svg"
 width="512.000000pt" height="512.000000pt" viewBox="0 0 512.000000 512.000000"
 preserveAspectRatio="xMidYMid meet">
<metadata>
Created by potrace 1.14, written by Peter Selinger 2001-2017
</metadata>
<g transform="translate(0.000000,512.000000) scale(0.100000,-0.100000)"
fill="#000000" stroke="none">
<path d="M3864 5059 c-27 -23 -50 -45 -52 -50 -2 -5 -10 -9 -18 -9 -9 0 -12
-4 -9 -10 3 -5 2 -10 -2 -10 -5 0 -30 -19 -55 -42 -25 -24 -77 -71 -114 -104
-38 -34 -82 -74 -99 -90 -160 -147 -237 -218 -290 -269 -35 -33 -110 -103
-165 -155 -56 -52 -166 -157 -244 -232 -77 -76 -144 -138 -148 -138 -5 0 -8
-4 -8 -8 0 -5 -33 -42 -73 -83 -116 -117 -175 -220 -218 -375 -26 -94 -28
-251 -5 -389 40 -244 38 -353 -7 -396 -98 -95 -235 -220 -327 -299 -14 -12
-36 -31 -50 -43 -14 -12 -43 -37 -65 -55 -22 -19 -69 -59 -104 -90 -36 -32
-75 -66 -89 -77 -13 -11 -36 -31 -50 -44 -32 -28 -126 -109 -156 -134 -11 -10
-45 -39 -74 -65 -29 -26 -66 -58 -82 -72 -104 -92 -167 -148 -186 -167 -13
-13 -25 -23 -28 -23 -3 0 -23 -18 -43 -40 -21 -22 -44 -40 -50 -40 -7 0 -13
-7 -13 -15 0 -8 -4 -15 -8 -15 -5 0 -38 -29 -75 -65 -37 -36 -67 -63 -67 -61
0 4 -352 -350 -417 -420 -46 -49 -155 -171 -180 -201 -10 -12 -25 -30 -33 -40
-9 -10 -36 -45 -60 -78 -25 -33 -47 -62 -50 -65 -5 -5 -11 -15 -65 -103 -106
-175 -95 -296 37 -411 59 -52 88 -60 186 -54 61 4 158 38 197 70 5 4 42 29 80
55 39 25 72 49 75 53 3 3 27 24 55 45 27 22 56 47 65 55 9 8 45 40 80 70 156
136 500 474 500 492 0 6 3 9 6 6 3 -3 24 15 47 40 23 26 53 59 67 73 14 15 56
61 94 103 38 42 81 89 95 105 29 31 131 146 176 198 17 20 45 51 63 70 17 19
32 37 32 39 0 2 8 12 18 22 9 10 40 44 67 76 28 32 69 79 91 105 23 25 52 59
65 75 13 15 32 37 42 47 9 10 17 24 17 31 0 6 3 8 6 5 4 -3 16 6 27 21 12 15
48 58 81 97 34 38 72 83 86 99 146 171 269 294 307 307 34 11 185 8 258 -6
183 -33 367 -37 479 -11 117 28 255 103 336 183 223 220 420 424 420 435 0 5
5 6 10 3 6 -3 10 -2 10 3 0 4 24 33 53 63 28 31 102 109 162 174 61 65 130
139 155 165 25 26 74 80 110 119 36 40 85 94 110 120 25 26 91 97 147 157 55
60 104 112 107 115 4 3 -6 22 -21 41 -16 19 -39 50 -53 68 -14 19 -53 67 -87
107 l-62 73 -417 -415 c-229 -228 -421 -415 -427 -415 -6 0 -8 -3 -5 -6 6 -5
-34 -54 -45 -54 -2 0 -41 -36 -85 -80 -84 -84 -112 -98 -174 -86 -18 3 -44 17
-58 31 -42 41 -45 46 -56 99 -5 29 41 102 106 169 31 31 55 57 53 57 -1 0 204
207 456 460 l459 460 -129 127 c-71 71 -135 129 -143 131 -8 2 -79 -60 -157
-137 -79 -78 -147 -141 -151 -141 -4 0 -8 -6 -8 -14 0 -8 -4 -16 -10 -18 -5
-1 -148 -140 -318 -308 -340 -336 -420 -410 -442 -410 -6 0 -10 -4 -10 -8 0
-8 -24 -9 -77 -4 -22 2 -64 38 -85 72 -9 14 -16 46 -16 73 l0 48 159 161 c88
89 159 166 159 170 0 3 9 10 20 13 11 3 20 10 20 14 0 10 176 184 190 189 6 2
10 7 10 11 0 5 82 91 183 193 100 102 208 213 240 247 57 62 57 62 40 86 -10
13 -22 25 -26 25 -7 0 -104 77 -127 100 -7 7 -72 55 -86 63 -6 3 -33 -12 -60
-34z"/>
</g>
</svg>
