<svg width="623" height="632" viewBox="0 0 623 632" fill="none" xmlns="http://www.w3.org/2000/svg">
<path d="M623 271.646C623 276.154 622.356 287.359 621.225 305.246C620.094 323.134 616.243 343.862 609.801 367.258C603.202 390.828 593.224 415.731 579.553 441.982C566.04 468.234 546.886 492.63 522.106 515.04C497.326 537.276 466.119 555.83 428.298 570.369C390.492 584.908 344.468 592.098 290.242 592.098C246.638 592.098 207.056 586.749 171.654 576.211C136.253 565.513 105.847 549.293 80.4231 527.564C55.1567 505.661 35.373 477.743 21.2152 443.649C7.08605 409.556 0 368.432 0 320.452C0 280.169 6.11261 240.712 18.6671 202.096C30.8923 163.48 50.2036 129.213 76.1142 98.9608C102.025 68.7087 135.651 44.8056 176.994 26.9181C218.336 9.0307 267.252 0 323.897 0C421.885 0 496.224 23.5697 546.9 70.3757C597.59 117.356 623 184.557 623 271.646Z" fill="#FFA841"/>
<g clip-path="url(#clip0_48_659)">
<path d="M287.049 510.386C287.049 510.386 272.097 572.759 274.343 578.179C274.343 578.179 382.773 573.254 299.113 563.711L307.763 537.675L287.034 510.386H287.049Z" fill="black"/>
<path d="M329.455 569.262C322.322 573.211 281.725 575.09 273.993 575.411L274.343 578.193C274.343 578.193 340.965 575.163 329.455 569.262Z" fill="#F3F4F5"/>
<path d="M172.303 251.831C172.303 251.831 137.293 316.491 167.445 332.168C187.606 342.644 301.972 405.148 301.972 405.148C301.972 405.148 276.109 513.854 276.109 533.45L313.059 543.153C313.059 543.153 364.874 392.924 355.144 378.223C345.414 363.523 249.136 300.814 249.136 300.814L256.911 279.265L172.303 251.831Z" fill="#0B625B"/>
<path d="M437.639 179.565C437.901 181.124 439.418 182.173 441.023 181.91L443.94 181.43C445.545 181.167 446.639 179.681 446.377 178.122C446.114 176.563 444.597 175.514 442.992 175.777L440.075 176.257C438.47 176.52 437.376 178.006 437.639 179.565Z" fill="black"/>
<path d="M439.578 171.435C440.06 172.935 441.912 173.693 443.736 173.11L447.018 172.061C448.827 171.479 449.907 169.788 449.425 168.288C448.944 166.787 447.091 166.029 445.268 166.612L441.985 167.661C440.177 168.244 439.097 169.934 439.578 171.435Z" fill="black"/>
<path d="M438.164 164.98C438.864 166.394 440.586 166.991 442.001 166.292L450.826 162.037C452.241 161.338 452.825 159.619 452.139 158.205C451.439 156.792 449.717 156.209 448.302 156.894L439.477 161.149C438.062 161.848 437.478 163.567 438.164 164.98Z" fill="black"/>
<path d="M440.089 176.257L443.007 175.777C443.692 175.66 444.363 175.777 444.918 176.097L443.751 181.459L441.023 181.91C439.418 182.173 437.901 181.124 437.639 179.565C437.376 178.006 438.47 176.52 440.075 176.257H440.089Z" fill="black"/>
<path d="M441.985 167.661L445.268 166.612C445.851 166.423 446.449 166.379 447.004 166.452L445.691 172.484L443.721 173.11C441.912 173.693 440.045 172.935 439.564 171.435C439.082 169.934 440.162 168.244 441.971 167.661H441.985Z" fill="black"/>
<path d="M439.462 161.148L448.288 156.894C448.565 156.763 448.842 156.676 449.119 156.632L447.617 163.567L441.986 166.277C440.571 166.976 438.85 166.394 438.15 164.966C437.449 163.538 438.033 161.833 439.462 161.134V161.148Z" fill="black"/>
<path d="M399.2 180.905C403.153 160.872 404.233 159.327 404.233 159.327C410.841 159.793 408.157 169.919 407.296 173.139C414.006 178.384 411.074 189.895 411.074 189.895L429.528 193.887C427.617 204.756 410.724 207.83 410.724 207.83L401.417 203.342L394.007 201.565L399.2 180.905Z" fill="black"/>
<path d="M416.982 203.547L395.655 217.257L384.116 199.351L403.197 187.068L416.982 203.547Z" fill="black"/>
<path opacity="0.2" d="M398.441 192.185L387.38 199.302L398.93 217.209L409.991 210.092L398.441 192.185Z" fill="#3B5F76"/>
<path opacity="0.2" d="M410.738 191.425L411.074 189.895L429.527 193.887C429.44 194.412 429.308 194.922 429.148 195.417L410.738 191.439V191.425Z" fill="#3B5F76"/>
<path d="M417.164 125.084L404.268 184.608C403.834 186.613 405.109 188.591 407.117 189.025L435.775 195.219C437.783 195.653 439.763 194.379 440.197 192.373L453.094 132.849C453.528 130.844 452.253 128.866 450.245 128.432L421.587 122.238C419.579 121.805 417.599 123.078 417.164 125.084Z" fill="#279188"/>
<path d="M418.97 126.243L407.077 181.138C406.855 182.161 407.506 183.169 408.529 183.39L436.702 189.479C437.726 189.701 438.735 189.051 438.957 188.029L450.85 133.133C451.072 132.11 450.422 131.102 449.398 130.881L421.225 124.792C420.201 124.571 419.192 125.22 418.97 126.243Z" fill="white"/>
<path opacity="0.2" d="M420.177 188.758C419.958 189.764 420.6 190.754 421.606 190.973C422.613 191.191 423.605 190.55 423.823 189.545C424.042 188.54 423.4 187.549 422.394 187.33C421.387 187.112 420.395 187.753 420.177 188.758Z" fill="white"/>
<path d="M426.099 173.256C426.478 172.935 447.703 155.481 435.596 147.657C434.429 146.768 433.028 146.127 431.453 145.835C430.403 145.631 429.352 145.617 428.346 145.733C411.526 147.001 425.837 172.804 426.085 173.256H426.099Z" fill="#279188"/>
<path opacity="0.1" d="M423.182 147.438L434.721 164.383C430.972 169.249 426.289 173.11 426.114 173.256C425.895 172.862 415.144 153.441 423.197 147.438H423.182Z" fill="#0C1F33"/>
<path d="M433.218 155.859C432.838 157.885 430.869 159.21 428.841 158.832C426.814 158.453 425.486 156.486 425.865 154.461C426.245 152.435 428.214 151.11 430.242 151.488C432.269 151.867 433.597 153.834 433.218 155.859Z" fill="white"/>
<path d="M410.519 213.046L391.395 188.744L322.483 225.052C311.951 194.455 306.057 160.959 305.532 159.371V156.457C291.995 180.497 293.585 212.463 298.297 237.8L289.632 242.36L302.79 257.426C306.408 270.815 309.923 279.572 309.923 279.572C309.923 279.572 314.008 278.246 319.011 275.988L320.864 278.115L410.519 213.032V213.046Z" fill="#279188"/>
<path opacity="0.2" d="M410.519 213.046L391.395 188.744L322.483 225.052C311.951 194.455 306.057 160.959 305.532 159.371V156.457C291.995 180.497 293.585 212.463 298.297 237.8L289.632 242.36L302.79 257.426C306.408 270.815 309.923 279.572 309.923 279.572C309.923 279.572 314.008 278.246 319.011 275.988L320.864 278.115L410.519 213.032V213.046Z" fill="#223947"/>
<path opacity="0.1" d="M517.694 619.674C517.694 626.478 410.825 631.986 278.982 631.986C147.139 631.986 40.2705 626.478 40.2705 619.674C40.2705 612.87 147.139 607.363 278.982 607.363C410.825 607.363 517.694 612.87 517.694 619.674Z" fill="black"/>
<path opacity="0.1" d="M517.694 619.674C517.694 626.478 410.825 631.986 278.982 631.986C147.139 631.986 40.2705 626.478 40.2705 619.674C40.2705 612.87 147.139 607.363 278.982 607.363C410.825 607.363 517.694 612.87 517.694 619.674Z" fill="black"/>
<path opacity="0.1" d="M517.694 619.674C517.694 626.478 410.825 631.986 278.982 631.986C147.139 631.986 40.2705 626.478 40.2705 619.674C40.2705 612.87 147.139 607.363 278.982 607.363C410.825 607.363 517.694 612.87 517.694 619.674Z" fill="black"/>
<path d="M425.018 422.195C476.163 422.195 517.766 464.113 517.766 515.631C517.766 567.15 476.163 609.067 425.018 609.067C373.874 609.067 332.27 567.15 332.27 515.631C332.27 464.113 373.874 422.195 425.018 422.195ZM425.018 410.088C367.149 410.088 320.25 457.352 320.25 515.646C320.25 573.94 367.164 621.204 425.018 621.204C482.873 621.204 529.787 573.94 529.787 515.646C529.787 457.352 482.873 410.088 425.018 410.088Z" fill="#994040"/>
<path d="M526.096 515.631C525.775 550.031 508.795 581.793 480.349 600.879C451.714 620.082 414.209 622.472 383.021 608.31C352.562 594.498 331.293 565.591 325.327 532.736C319.156 498.701 332.095 463.632 356.953 440.32C386.303 412.798 430.722 406.489 467.002 422.939C502.96 439.257 525.717 476.22 526.096 515.617C526.14 520.41 533.521 520.41 533.478 515.617C533.171 483.607 519.488 453.506 495.448 432.525C471.422 411.559 439.227 403.182 408.009 407.698C342.35 417.198 302.016 487.497 322.015 549.958C338.295 600.792 390.315 631.01 441.999 623.521C494.441 615.93 532.967 568.141 533.463 515.602C533.507 510.809 526.125 510.809 526.082 515.602L526.096 515.631Z" fill="#012F2B"/>
<path d="M423.706 420.84V616.309" stroke="#994040" stroke-width="0.5" stroke-miterlimit="10"/>
<path d="M326.698 518.574H520.714" stroke="#994040" stroke-width="0.5" stroke-miterlimit="10"/>
<path d="M355.115 449.47L492.297 587.679" stroke="#994040" stroke-width="0.5" stroke-miterlimit="10"/>
<path d="M355.115 587.679L492.297 449.47" stroke="#994040" stroke-width="0.5" stroke-miterlimit="10"/>
<path d="M386.04 428.504L461.356 608.645" stroke="#994040" stroke-width="0.5" stroke-miterlimit="10"/>
<path d="M334.298 556.514L513.098 480.635" stroke="#994040" stroke-width="0.5" stroke-miterlimit="10"/>
<path d="M333.86 481.713L513.551 555.436" stroke="#994040" stroke-width="0.5" stroke-miterlimit="10"/>
<path d="M387.12 609.096L460.292 428.052" stroke="#994040" stroke-width="0.5" stroke-miterlimit="10"/>
<path d="M404.597 422.749L442.816 614.4" stroke="#994040" stroke-width="0.5" stroke-miterlimit="10"/>
<path d="M328.595 537.821L518.817 499.328" stroke="#994040" stroke-width="0.5" stroke-miterlimit="10"/>
<path d="M342.935 464.433L504.463 572.716" stroke="#994040" stroke-width="0.5" stroke-miterlimit="10"/>
<path d="M369.965 599.947L477.446 437.202" stroke="#994040" stroke-width="0.5" stroke-miterlimit="10"/>
<path d="M369.177 437.741L478.234 599.408" stroke="#994040" stroke-width="0.5" stroke-miterlimit="10"/>
<path d="M343.474 573.517L503.937 463.632" stroke="#994040" stroke-width="0.5" stroke-miterlimit="10"/>
<path d="M328.419 500.26L518.992 536.889" stroke="#994040" stroke-width="0.5" stroke-miterlimit="10"/>
<path d="M405.529 614.575L441.882 422.574" stroke="#994040" stroke-width="0.5" stroke-miterlimit="10"/>
<path d="M425.018 531.76C433.856 531.76 441.021 524.539 441.021 515.632C441.021 506.724 433.856 499.503 425.018 499.503C416.18 499.503 409.016 506.724 409.016 515.632C409.016 524.539 416.18 531.76 425.018 531.76Z" fill="#994040"/>
<path d="M432.064 515.632C432.064 519.551 428.913 522.727 425.019 522.727C421.124 522.727 417.973 519.551 417.973 515.632C417.973 511.712 421.124 508.536 425.019 508.536C428.913 508.536 432.064 511.712 432.064 515.632Z" fill="#012F2B"/>
<path d="M120.137 422.195C171.282 422.195 212.886 464.113 212.886 515.631C212.886 567.15 171.282 609.067 120.137 609.067C68.9932 609.067 27.3893 567.15 27.3893 515.631C27.3893 464.113 68.9932 422.195 120.137 422.195ZM120.137 410.088C62.2683 410.088 15.3691 457.352 15.3691 515.646C15.3691 573.94 62.2829 621.204 120.137 621.204C177.992 621.204 224.906 573.94 224.906 515.646C224.906 457.352 177.992 410.088 120.137 410.088Z" fill="#994040"/>
<path d="M221.215 515.631C220.894 550.031 203.914 581.793 175.469 600.879C146.833 620.082 109.328 622.472 78.1399 608.31C47.681 594.498 26.4122 565.591 20.4459 532.736C14.2753 498.701 27.2145 463.632 52.0718 440.32C81.4221 412.798 125.841 406.489 162.121 422.939C198.079 439.257 220.836 476.22 221.215 515.617C221.259 520.41 228.64 520.41 228.597 515.617C228.29 483.607 214.607 453.506 190.567 432.525C166.541 411.559 134.346 403.182 103.129 407.698C37.4696 417.198 -2.86515 487.497 17.1345 549.958C33.4143 600.792 85.4337 631.01 137.118 623.521C189.56 615.93 228.086 568.141 228.582 515.602C228.626 510.809 221.244 510.809 221.201 515.602L221.215 515.631Z" fill="#012F2B"/>
<path d="M118.825 420.84V616.309" stroke="#994040" stroke-width="0.5" stroke-miterlimit="10"/>
<path d="M21.8174 518.574H215.833" stroke="#994040" stroke-width="0.5" stroke-miterlimit="10"/>
<path d="M50.2344 449.47L187.416 587.679" stroke="#994040" stroke-width="0.5" stroke-miterlimit="10"/>
<path d="M50.2344 587.679L187.416 449.47" stroke="#994040" stroke-width="0.5" stroke-miterlimit="10"/>
<path d="M81.1592 428.504L156.475 608.645" stroke="#994040" stroke-width="0.5" stroke-miterlimit="10"/>
<path d="M29.417 556.514L208.217 480.635" stroke="#994040" stroke-width="0.5" stroke-miterlimit="10"/>
<path d="M28.9795 481.713L208.67 555.436" stroke="#994040" stroke-width="0.5" stroke-miterlimit="10"/>
<path d="M82.2393 609.096L155.411 428.052" stroke="#994040" stroke-width="0.5" stroke-miterlimit="10"/>
<path d="M99.7158 422.749L137.935 614.4" stroke="#994040" stroke-width="0.5" stroke-miterlimit="10"/>
<path d="M23.7139 537.821L213.936 499.328" stroke="#994040" stroke-width="0.5" stroke-miterlimit="10"/>
<path d="M38.0537 464.433L199.582 572.716" stroke="#994040" stroke-width="0.5" stroke-miterlimit="10"/>
<path d="M65.084 599.947L172.566 437.202" stroke="#994040" stroke-width="0.5" stroke-miterlimit="10"/>
<path d="M64.2959 437.741L173.353 599.408" stroke="#994040" stroke-width="0.5" stroke-miterlimit="10"/>
<path d="M38.5928 573.517L199.057 463.632" stroke="#994040" stroke-width="0.5" stroke-miterlimit="10"/>
<path d="M23.5381 500.26L214.111 536.889" stroke="#994040" stroke-width="0.5" stroke-miterlimit="10"/>
<path d="M100.648 614.575L137.001 422.574" stroke="#994040" stroke-width="0.5" stroke-miterlimit="10"/>
<path d="M245.518 510.881L119.277 506.977L114.974 522.989L238.691 565.212L245.518 510.881Z" stroke="#C6D5D2" stroke-width="2.37" stroke-linecap="round" stroke-linejoin="round"/>
<path d="M244.774 547.408L285.036 578.471C285.036 578.471 277.757 585.347 279.128 585.435C281.812 585.61 240.34 552.216 240.34 552.216L244.76 547.408H244.774Z" fill="#994040"/>
<path d="M300.864 589.281L269.573 591.175C269.573 591.175 269.15 578.164 270.522 578.019C271.893 577.873 298.967 575.498 298.967 575.498L300.864 589.296V589.281Z" fill="#012F2B"/>
<path d="M245.08 572.308C262.628 572.308 276.852 557.976 276.852 540.298C276.852 522.619 262.628 508.288 245.08 508.288C227.533 508.288 213.309 522.619 213.309 540.298C213.309 557.976 227.533 572.308 245.08 572.308Z" fill="#DDE4E3"/>
<path d="M245.081 567.558C260.017 567.558 272.126 555.353 272.126 540.298C272.126 525.243 260.017 513.038 245.081 513.038C230.144 513.038 218.035 525.243 218.035 540.298C218.035 555.353 230.144 567.558 245.081 567.558Z" fill="#994040"/>
<path d="M120.137 531.76C128.975 531.76 136.14 524.539 136.14 515.631C136.14 506.724 128.975 499.502 120.137 499.502C111.299 499.502 104.135 506.724 104.135 515.631C104.135 524.539 111.299 531.76 120.137 531.76Z" fill="#994040"/>
<path d="M364.319 352.114L425.879 515.631" stroke="#279188" stroke-width="7.1" stroke-linecap="round" stroke-linejoin="round"/>
<path d="M185.402 337.399L245.795 540.152L119.816 516.782L198.283 380.948H373.481L378.63 390.171L245.795 540.152" stroke="#279188" stroke-width="4.73" stroke-linecap="round" stroke-linejoin="round"/>
<path d="M156.927 326.836L220.427 332.372C220.427 332.372 221.215 341.872 212.666 343.839C204.118 345.806 167.736 354.402 160.282 348.181C152.828 341.945 148.991 332.023 156.927 326.85V326.836Z" fill="#012F2B"/>
<path d="M361.577 363.742C365.428 361.993 369.381 360.522 373.422 359.298L369.644 349.886L413.611 340.663C417.039 340.007 419.285 336.671 418.629 333.218C417.973 329.765 414.661 327.492 411.233 328.162L359.71 338.842C357.857 339.206 356.252 340.372 355.348 342.047C354.443 343.723 354.327 345.719 355.042 347.482L361.577 363.756V363.742Z" fill="#994040"/>
<path d="M384.844 321.445C384.844 321.445 403.968 322.771 405.952 328.759C407.936 334.733 404.946 340.007 397.156 347.715C390.781 354.009 386.171 346.039 386.171 346.039C386.171 346.039 399.359 344.713 396.718 337.399C394.078 330.085 381.547 345.369 374.297 332.751C367.047 320.134 384.844 321.46 384.844 321.46V321.445Z" fill="black"/>
<path d="M244.701 550.468C250.961 550.468 256.035 545.353 256.035 539.045C256.035 532.736 250.961 527.622 244.701 527.622C238.441 527.622 233.366 532.736 233.366 539.045C233.366 545.353 238.441 550.468 244.701 550.468Z" fill="#E9EBEC"/>
<path d="M243.271 543.926L202.922 512.98C202.922 512.98 210.187 506.073 208.801 506.001C206.117 505.84 247.677 539.103 247.677 539.103L243.271 543.926Z" fill="#DDE4E3"/>
<path d="M191.821 502.038L229.719 512.659C229.719 512.659 227.502 523.47 226.116 523.426C224.73 523.368 189.078 512.63 189.078 512.63L191.806 502.052L191.821 502.038Z" fill="#012F2B"/>
<path d="M250.725 538.972C250.725 542.323 248.027 545.033 244.701 545.033C241.375 545.033 238.69 542.323 238.69 538.972C238.69 535.621 241.389 532.911 244.701 532.911C248.012 532.911 250.725 535.621 250.725 538.972Z" fill="#DDE4E3"/>
<path d="M231.937 461.417C231.937 461.417 203.476 499.969 203.783 505.826C203.783 505.826 307.544 537.894 231.937 500.581L248.771 478.988L231.937 461.417Z" fill="black"/>
<path d="M258.676 516.083C250.638 517.394 211.776 505.403 204.395 503.101L203.797 505.84C203.797 505.84 267.559 525.539 258.69 516.083H258.676Z" fill="#F3F4F5"/>
<path d="M172.303 251.83C172.303 251.83 137.293 316.491 167.445 332.168C187.606 342.644 285.051 384.095 285.051 384.095C285.051 384.095 226.263 449.907 212.652 479.309L241.361 495.787C241.361 495.787 357.114 386.076 351.935 369.205C344.904 346.345 258.195 305.914 258.195 305.914L266.16 281.859L172.318 251.816L172.303 251.83Z" fill="#279188"/>
<path d="M194.622 292.378C215.132 295.656 235.73 299.139 256.357 301.586C257.407 301.718 258.457 301.834 259.508 301.951L266.145 281.873L172.303 251.831C172.303 251.831 164.061 267.056 159.014 284.525C170.582 288.24 182.704 290.47 194.622 292.378Z" fill="#154B47"/>
<path d="M278.924 62.6129C278.924 62.6129 283.417 35.1343 322.132 35.6442C360.863 36.1542 361.884 79.0476 351.045 107.634C340.207 136.219 325.838 141.975 310.346 137.385C294.854 132.796 264.964 115.195 278.909 62.6129H278.924Z" fill="#FFD7C6"/>
<g opacity="0.7">
<path d="M282.687 84.0451C280.922 81.9761 280.514 78.7562 284 78.5377L283.461 78.9019C284.263 76.5416 285.226 73.6859 284.686 71.2674C284.526 70.7283 284.219 70.262 283.796 69.9561C283.402 69.6647 282.892 69.6938 282.337 69.9561C281.229 70.5097 280.251 71.5879 279.405 72.666C280.164 70.7428 281.871 67.8143 284.38 68.9216C287.939 71.3256 285.78 76.6873 284.409 79.7615C281.331 79.4993 281.885 81.947 282.673 84.0596L282.687 84.0451Z" fill="#F2F0EF"/>
</g>
<path d="M342.861 81.5977C343.051 89.2905 342.249 96.8959 340.425 104.385C340.236 96.6919 341.053 89.0865 342.861 81.5977Z" fill="#FFAFD5"/>
<path opacity="0.1" d="M328.697 127.434C312.767 117.133 295.525 109.455 278.253 101.82C281.944 126.283 299.39 134.529 310.681 137.881C319.784 140.576 328.493 139.731 336.355 132.869C333.876 130.974 331.337 129.153 328.697 127.449V127.434Z" fill="black"/>
<path d="M278.559 104.501C278.559 104.501 278.282 108.756 277.582 107.08C275.263 101.514 270.449 82.326 273.818 64.8276C278.195 42.0405 288.041 29.5542 288.041 29.5542L315.393 37.2762C315.393 37.2762 317.581 62.2634 293.876 71.0781L289.019 86.7552L284.759 86.6386C284.759 86.6386 290.959 68.5138 283.665 66.3138C276.371 64.1137 273.818 81.3789 281.842 86.8863" fill="black"/>
<path d="M329.09 84.9197C329.12 83.0547 328.974 81.2189 328.478 79.558C327.661 76.1341 323.722 74.4149 321.009 76.9791C319.725 78.1156 318.689 79.6454 317.989 81.3646C318.135 79.4997 318.865 77.6202 320.221 76.1632C322.293 73.599 326.552 73.7884 328.449 76.5129C330.17 78.9752 329.98 82.268 329.105 84.9342L329.09 84.9197Z" fill="black"/>
<path d="M352.168 92.0148C352.022 89.1155 352.285 84.8465 349.542 83.273C348.142 82.5008 346.814 83.4915 345.895 84.5988C344.889 85.8518 344.13 87.3671 343.532 88.9698C343.605 87.2505 344.101 85.5167 345.079 84.0015C346.814 80.9855 350.622 80.9855 352.11 84.22C353.189 86.6969 352.897 89.5234 352.168 92.0148Z" fill="black"/>
<path d="M325.735 109.134C325.648 111.232 325.969 113.345 326.917 115.064C328.799 118.488 333.729 119.639 337.07 117.643C338.762 116.638 340.162 115.02 340.921 113.054C340.658 115.152 339.448 117.191 337.624 118.488C334.853 120.542 330.812 120.222 328.098 118.182C325.356 116.113 324.802 112.165 325.735 109.134Z" fill="black"/>
<path d="M339.462 73.6279C332.519 68.7762 325.006 64.2887 316.545 67.5377C315.334 67.8728 314.211 68.4848 312.84 68.849C319.856 57.4554 335.655 62.0595 339.462 73.6279Z" fill="black"/>
<path d="M345.662 77.2997C347.077 73.4096 352.139 70.7287 355.946 73.2493C357.536 74.3857 358.164 76.2361 358.032 77.999C357.464 80.6362 357.493 80.6507 355.946 78.5527C355.057 77.5182 354.108 76.6295 352.839 76.6441C350.68 76.5566 348.215 77.256 345.662 77.2851V77.2997Z" fill="black"/>
<path d="M363.415 57.834C363.415 57.834 367.792 24.5275 343.474 12.2743C319.156 0.0211015 282.687 7.85965 275.394 49.0193L363.401 57.834H363.415Z" fill="#279188"/>
<path opacity="0.1" d="M363.415 57.834C363.415 57.834 367.792 24.5275 343.474 12.2743C319.156 0.0211015 282.687 7.85965 275.394 49.0193L363.401 57.834H363.415Z" fill="#223947"/>
<path d="M275.394 49.0195C275.394 49.0195 376.048 79.3975 388.2 69.1113C395.041 63.3271 373.612 54.4104 364.378 51.4818C358.062 56.3773 275.394 49.0341 275.394 49.0341V49.0195Z" fill="#279188"/>
<path d="M324.991 141.115C315.043 128.089 267.151 97.4492 267.151 97.4492C258.472 108.245 252.958 116.638 249.632 122.291C214.928 134.529 184.498 179.681 158.722 264.841C158.722 264.841 222.397 296.91 280.091 295.919C280.091 295.919 318.398 203.27 311.994 152.844L325.006 141.144L324.991 141.115Z" fill="#279188"/>
<path opacity="0.1" d="M324.991 141.115C315.043 128.089 267.151 97.4492 267.151 97.4492C258.472 108.245 252.958 116.638 249.632 122.291C214.928 134.529 184.498 179.681 158.722 264.841C158.722 264.841 222.397 296.91 280.091 295.919C280.091 295.919 318.398 203.27 311.994 152.844L325.006 141.144L324.991 141.115Z" fill="#223947"/>
<path d="M254.869 111.48C254.869 111.48 292.913 114.7 297.771 151.605C302.629 188.51 279.288 276.905 172.317 244.852L173.295 234.172C173.295 234.172 233.585 252.632 271.513 212.798C309.441 172.979 240.398 121.489 240.398 121.489L254.869 111.465V111.48Z" fill="#012F2B"/>
<path opacity="0.4" d="M254.869 111.48C254.869 111.48 292.913 114.7 297.771 151.605C302.629 188.51 279.288 276.905 172.317 244.852L178.736 234.901C178.736 234.901 233.308 251.408 271.513 212.798C310.2 173.708 243.33 127.128 243.33 127.128L254.883 111.48H254.869Z" fill="#279188"/>
<path d="M166.488 252.081C166.488 252.081 98.8594 225.535 67 202.689C67 202.689 117.254 95.6016 149.055 52.9995C149.055 52.9995 224.692 87.2094 254.407 111.789C254.407 111.789 195.75 215.074 166.488 252.081Z" fill="#012F2B"/>
<path opacity="0.4" d="M170.115 62.4231C157.876 56.4787 149.517 52.7051 149.517 52.7051C117.702 95.3071 67.4619 202.395 67.4619 202.395C75.2809 208.004 85.2588 213.832 95.8786 219.442C120.415 167.005 146.804 115.297 170.115 62.4377V62.4231Z" fill="#41E3D5"/>
<path d="M142.646 64.1864L157.234 72.4475L90.627 205.513L93.5445 208.427L160.648 70.9905L143.624 61.2725L142.646 64.1864Z" fill="#012F2B"/>
<path d="M137.789 88.4744L152.858 73.4238L153.835 75.8424L142.647 94.3023L137.789 88.4744Z" fill="#012F2B"/>
<path d="M376.325 335.373C376.325 335.373 357.084 327.506 346.479 309.803L365.997 302.504C365.997 302.504 373.524 315.15 386.069 321.605L376.31 335.373H376.325Z" fill="black"/>
<path d="M405.354 327.957C405.354 327.957 410.868 338.564 408.053 343.868C405.237 349.171 403.895 342.134 403.895 342.134C403.895 342.134 405.004 349.419 396.791 347.933L405.369 327.943L405.354 327.957Z" fill="black"/>
<path d="M228.348 163.596C228.348 163.596 225.358 111.48 264.161 128.512C295.335 142.193 301.972 224.73 327.836 250.796L386.536 315.952L362.656 331.993C362.656 331.993 314.897 305.928 281.083 269.853C247.254 233.764 228.348 163.61 228.348 163.61V163.596Z" fill="#279188"/>
</g>
<defs>
<clipPath id="clip0_48_659">
<rect width="521.478" height="625" fill="white" transform="translate(12 7)"/>
</clipPath>
</defs>
</svg>
